<?xml version="1.0" encoding="UTF-8" standalone="no"?><!DOCTYPE svg PUBLIC "-//W3C//DTD SVG 1.1//EN" "http://www.w3.org/Graphics/SVG/1.1/DTD/svg11.dtd"><svg width="100%" height="100%" viewBox="0 0 135 18" version="1.1" xmlns="http://www.w3.org/2000/svg" xmlns:xlink="http://www.w3.org/1999/xlink" xml:space="preserve" xmlns:serif="http://www.serif.com/" style="fill-rule:evenodd;clip-rule:evenodd;stroke-linejoin:round;stroke-miterlimit:1.41421;"><g id="logo"><g><g><path d="M22,8.207c0,-0.954 -0.773,-1.727 -1.728,-1.727c-5.187,0 -20.272,0 -20.272,0c0,0 0,1.854 0,3.313c0,0.954 0.773,1.727 1.728,1.727c5.187,0 20.272,0 20.272,0c0,0 0,-1.854 0,-3.313Z" style="fill:#e87b73;"/><path d="M22,0.325l0,5.041l-22,0c0,0 0,0 0,-0.001c0,-1.336 0.467,-2.618 1.299,-3.563c0.832,-0.946 1.96,-1.477 3.136,-1.477l17.565,0Zm-15.4,1.521c0.486,0 0.88,0.448 0.88,1c0,0.552 -0.394,1 -0.88,1c-0.486,0 -0.88,-0.448 -0.88,-1c0,-0.552 0.394,-1 0.88,-1Zm2.64,0c0.486,0 0.88,0.448 0.88,1c0,0.552 -0.394,1 -0.88,1c-0.486,0 -0.88,-0.448 -0.88,-1c0,-0.552 0.394,-1 0.88,-1Zm-5.28,0c0.486,0 0.88,0.448 0.88,1c0,0.552 -0.394,1 -0.88,1c-0.486,0 -0.88,-0.448 -0.88,-1c0,-0.552 0.394,-1 0.88,-1Z" style="fill:#e87b73;"/><path d="M0,17.675c0,0 11.139,0 17.565,0c1.176,0 2.304,-0.531 3.136,-1.477c0.832,-0.945 1.299,-2.227 1.299,-3.563c0,-0.001 0,-0.001 0,-0.001l-22,0l0,5.041Zm15.4,-3.521c0.486,0 0.88,0.448 0.88,1c0,0.552 -0.394,1 -0.88,1c-0.486,0 -0.88,-0.448 -0.88,-1c0,-0.552 0.394,-1 0.88,-1Zm2.64,0c0.486,0 0.88,0.448 0.88,1c0,0.552 -0.394,1 -0.88,1c-0.486,0 -0.88,-0.448 -0.88,-1c0,-0.552 0.394,-1 0.88,-1Zm-5.28,0c0.486,0 0.88,0.448 0.88,1c0,0.552 -0.394,1 -0.88,1c-0.486,0 -0.88,-0.448 -0.88,-1c0,-0.552 0.394,-1 0.88,-1Z" style="fill:#e87b73;"/></g></g><g><path d="M33.316,13.839c2.215,0 3.789,-1.2 3.789,-3.225c0,-2.22 -1.734,-2.775 -3.279,-3.255c-1.588,-0.495 -1.836,-0.825 -1.836,-1.305c0,-0.42 0.364,-0.795 1.093,-0.795c0.932,0 1.413,0.465 1.763,1.215l1.967,-1.185c-0.743,-1.545 -2.054,-2.37 -3.73,-2.37c-1.764,0 -3.425,1.17 -3.425,3.195c0,2.01 1.487,2.76 3.002,3.195c1.53,0.435 2.113,0.69 2.113,1.335c0,0.405 -0.277,0.855 -1.384,0.855c-1.151,0 -1.778,-0.585 -2.142,-1.455l-2.011,1.2c0.568,1.545 1.938,2.595 4.08,2.595Z" style="fill:#575757;fill-rule:nonzero;"/><path d="M40.675,11.319l0,-1.86l3.643,0l0,-2.28l-3.643,0l0,-1.74l4.008,0l0,-2.31l-6.34,0l0,10.5l6.412,0l0,-2.31l-4.08,0Z" style="fill:#575757;fill-rule:nonzero;"/><path d="M51.575,13.629l2.507,0l-2.171,-3.855c1.122,-0.585 1.879,-1.755 1.879,-3.045c0,-1.995 -1.559,-3.6 -3.497,-3.6l-4.08,0l0,10.5l2.331,0l0,-3.45l1.108,0l1.923,3.45Zm-3.031,-8.25l1.749,0c0.641,0 1.166,0.585 1.166,1.35c0,0.765 -0.525,1.35 -1.166,1.35l-1.749,0l0,-2.7Z" style="fill:#575757;fill-rule:nonzero;"/><path d="M57.623,13.629l2.973,0l3.322,-10.5l-2.55,0l-2.259,7.725l-2.258,-7.725l-2.551,0l3.323,10.5Z" style="fill:#575757;fill-rule:nonzero;"/><path d="M67.27,11.319l0,-1.86l3.643,0l0,-2.28l-3.643,0l0,-1.74l4.008,0l0,-2.31l-6.34,0l0,10.5l6.412,0l0,-2.31l-4.08,0Z" style="fill:#575757;fill-rule:nonzero;"/><path d="M78.17,13.629l2.507,0l-2.171,-3.855c1.122,-0.585 1.879,-1.755 1.879,-3.045c0,-1.995 -1.559,-3.6 -3.497,-3.6l-4.08,0l0,10.5l2.331,0l0,-3.45l1.108,0l1.923,3.45Zm-3.031,-8.25l1.749,0c0.641,0 1.166,0.585 1.166,1.35c0,0.765 -0.525,1.35 -1.166,1.35l-1.749,0l0,-2.7Z" style="fill:#575757;fill-rule:nonzero;"/><path d="M87.453,3.129l0,4.02l-3.206,0l0,-4.02l-2.331,0l0,10.5l2.331,0l0,-4.17l3.206,0l0,4.17l2.332,0l0,-10.5l-2.332,0Z" style="fill:#575757;fill-rule:nonzero;"/><path d="M95.541,13.839c2.244,0 3.935,-1.35 3.935,-3.6l0,-7.11l-2.332,0l0,6.9c0,0.795 -0.364,1.47 -1.603,1.47c-1.239,0 -1.603,-0.675 -1.603,-1.47l0,-6.9l-2.332,0l0,7.11c0,2.25 1.691,3.6 3.935,3.6Z" style="fill:#575757;fill-rule:nonzero;"/><path d="M106.98,3.129l0,5.7l-3.934,-5.7l-1.749,0l0,10.5l2.332,0l0,-5.7l3.934,5.7l1.749,0l0,-10.5l-2.332,0Z" style="fill:#575757;fill-rule:nonzero;"/><path d="M118.056,3.129l-7.578,0l0,2.31l2.623,0l0,8.19l2.332,0l0,-8.19l2.623,0l0,-2.31Z" style="fill:#575757;fill-rule:nonzero;"/><path d="M121.553,11.319l0,-1.86l3.643,0l0,-2.28l-3.643,0l0,-1.74l4.008,0l0,-2.31l-6.34,0l0,10.5l6.412,0l0,-2.31l-4.08,0Z" style="fill:#575757;fill-rule:nonzero;"/><path d="M132.453,13.629l2.507,0l-2.171,-3.855c1.122,-0.585 1.879,-1.755 1.879,-3.045c0,-1.995 -1.559,-3.6 -3.497,-3.6l-4.08,0l0,10.5l2.331,0l0,-3.45l1.108,0l1.923,3.45Zm-3.031,-8.25l1.749,0c0.641,0 1.166,0.585 1.166,1.35c0,0.765 -0.525,1.35 -1.166,1.35l-1.749,0l0,-2.7Z" style="fill:#575757;fill-rule:nonzero;"/></g></g></svg>