<?xml version="1.0" encoding="UTF-8" standalone="no"?><!DOCTYPE svg PUBLIC "-//W3C//DTD SVG 1.1//EN" "http://www.w3.org/Graphics/SVG/1.1/DTD/svg11.dtd"><svg width="100%" height="100%" viewBox="0 0 1783 1783" version="1.1" xmlns="http://www.w3.org/2000/svg" xmlns:xlink="http://www.w3.org/1999/xlink" xml:space="preserve" xmlns:serif="http://www.serif.com/" style="fill-rule:evenodd;clip-rule:evenodd;stroke-linejoin:round;stroke-miterlimit:2;"><circle cx="891.783" cy="891.827" r="885.827" style="fill:#fad560;"/><path d="M573.141,772.388l-59.773,262.899c-6.524,28.212 -15.781,51.663 -27.771,70.353c-11.99,18.691 -26.537,33.59 -43.641,44.699c-17.632,11.461 -36.763,19.483 -57.393,24.068c-20.63,4.584 -43.816,6.876 -69.56,6.876c-21.335,0 -41.788,-1.278 -61.36,-3.835c-19.572,-2.556 -36.059,-5.51 -49.459,-8.86l14.547,-72.998l11.637,-0c14.635,5.642 29.446,10.139 44.434,13.489c14.987,3.35 28.3,5.025 39.937,5.025c16.751,-0 31.297,-1.543 43.64,-4.629c12.343,-3.085 22.04,-7.537 29.093,-13.356c7.582,-6.171 13.621,-13.753 18.118,-22.746c4.496,-8.992 8.155,-20.013 10.976,-33.061l1.322,-5.554c-13.753,9.345 -27.418,16.751 -40.995,22.217c-13.577,5.466 -28.917,8.199 -46.02,8.199c-33.326,0 -59.378,-8.375 -78.156,-25.126c-18.778,-16.751 -28.168,-42.053 -28.168,-75.907c0,-58.364 16.487,-106.28 49.459,-143.748c32.973,-37.469 72.998,-56.204 120.077,-56.204c16.927,0 32.311,2.028 46.152,6.084c13.842,4.055 24.994,9.168 33.458,15.34l6.612,-13.225l92.834,0Zm-111.613,68.767c-5.113,-2.292 -11.857,-4.452 -20.233,-6.48c-8.375,-2.028 -15.737,-3.042 -22.084,-3.042c-28.388,0 -51.222,10.668 -68.502,32.003c-17.28,21.335 -25.92,48.754 -25.92,82.255c0,15.164 3.703,26.978 11.109,35.441c7.405,8.464 20.718,12.695 39.937,12.695c9.345,0 18.823,-1.807 28.432,-5.421c9.61,-3.615 18.647,-7.891 27.11,-12.828l30.151,-134.623Z" style="fill:#6c6c6c;fill-rule:nonzero;"/><path d="M857.463,863.107l-8.463,0c-4.232,-1.411 -10.227,-2.468 -17.985,-3.174c-7.758,-0.705 -15.428,-1.058 -23.01,-1.058c-12.519,0 -24.598,0.926 -36.235,2.777c-11.637,1.852 -23.627,4.805 -35.97,8.861l-46.02,198.893l-95.744,-0l68.766,-297.018l95.744,0l-10.051,43.641c17.985,-13.225 35.926,-23.98 53.823,-32.268c17.897,-8.287 35.926,-12.43 54.088,-12.43c3.35,-0 7.097,0.088 11.24,0.264c4.144,0.176 7.803,0.441 10.976,0.793l-21.159,90.719Z" style="fill:#6c6c6c;fill-rule:nonzero;"/><path d="M1398.87,838.51c-0,5.466 -0.397,11.373 -1.191,17.72c-0.793,6.348 -1.983,12.96 -3.57,19.837l-44.698,193.339l-96.273,-0l34.383,-148.377c2.292,-10.226 4.364,-20.012 6.216,-29.357c1.851,-9.346 2.777,-16.928 2.777,-22.746c-0,-10.227 -2.821,-17.721 -8.464,-22.482c-5.642,-4.76 -15.693,-7.141 -30.151,-7.141c-6.877,0 -14.679,1.631 -23.407,4.893c-8.728,3.262 -19.264,8.155 -31.606,14.679l-48.666,210.531l-96.272,-0l34.383,-148.377c1.939,-8.639 3.879,-17.985 5.818,-28.035c1.94,-10.051 2.91,-17.721 2.91,-23.01c-0,-10.756 -2.689,-18.558 -8.067,-23.407c-5.378,-4.849 -15.384,-7.274 -30.019,-7.274c-7.582,0 -15.869,1.764 -24.862,5.29c-8.992,3.527 -19.131,8.287 -30.416,14.282l-48.665,210.531l-95.744,-0l68.766,-297.018l95.744,0l-7.67,32.797c19.396,-12.872 36.896,-22.922 52.501,-30.152c15.604,-7.229 32.487,-10.844 50.649,-10.844c19.572,0 36.058,4.364 49.458,13.092c13.401,8.728 22.746,21.556 28.036,38.483c23.627,-17.103 44.786,-29.975 63.476,-38.615c18.691,-8.64 36.764,-12.96 54.22,-12.96c26.096,0 46.021,6.436 59.774,19.308c13.753,12.872 20.63,31.209 20.63,55.013Z" style="fill:#6c6c6c;fill-rule:nonzero;"/><path d="M1627.38,657.866l-95.215,411.54l-95.743,-0l95.214,-411.54l95.744,0Z" style="fill:#6c6c6c;fill-rule:nonzero;"/><path d="M549.141,744.388l-59.773,262.899c-6.524,28.212 -15.781,51.663 -27.771,70.353c-11.99,18.691 -26.537,33.59 -43.641,44.699c-17.632,11.461 -36.763,19.483 -57.393,24.068c-20.63,4.584 -43.816,6.876 -69.56,6.876c-21.335,0 -41.788,-1.278 -61.36,-3.835c-19.572,-2.556 -36.059,-5.51 -49.459,-8.86l14.547,-72.998l11.637,-0c14.635,5.642 29.446,10.139 44.434,13.489c14.987,3.35 28.3,5.025 39.937,5.025c16.751,-0 31.297,-1.543 43.64,-4.629c12.343,-3.085 22.04,-7.537 29.093,-13.356c7.582,-6.171 13.621,-13.753 18.118,-22.746c4.496,-8.992 8.155,-20.013 10.976,-33.061l1.322,-5.554c-13.753,9.345 -27.418,16.751 -40.995,22.217c-13.577,5.466 -28.917,8.199 -46.02,8.199c-33.326,0 -59.378,-8.375 -78.156,-25.126c-18.778,-16.751 -28.168,-42.053 -28.168,-75.907c0,-58.364 16.487,-106.28 49.459,-143.748c32.973,-37.469 72.998,-56.204 120.077,-56.204c16.927,0 32.311,2.028 46.152,6.084c13.842,4.055 24.994,9.168 33.458,15.34l6.612,-13.225l92.834,0Zm-111.613,68.767c-5.113,-2.292 -11.857,-4.452 -20.233,-6.48c-8.375,-2.028 -15.737,-3.042 -22.084,-3.042c-28.388,0 -51.222,10.668 -68.502,32.003c-17.28,21.335 -25.92,48.754 -25.92,82.255c0,15.164 3.703,26.978 11.109,35.441c7.405,8.464 20.718,12.695 39.937,12.695c9.345,0 18.823,-1.807 28.432,-5.421c9.61,-3.615 18.647,-7.891 27.11,-12.828l30.151,-134.623Z" style="fill-rule:nonzero;"/><path d="M833.463,835.107l-8.463,0c-4.232,-1.411 -10.227,-2.468 -17.985,-3.174c-7.758,-0.705 -15.428,-1.058 -23.01,-1.058c-12.519,0 -24.598,0.926 -36.235,2.777c-11.637,1.852 -23.627,4.805 -35.97,8.861l-46.02,198.893l-95.744,-0l68.766,-297.018l95.744,0l-10.051,43.641c17.985,-13.225 35.926,-23.98 53.823,-32.268c17.897,-8.287 35.926,-12.43 54.088,-12.43c3.35,-0 7.097,0.088 11.24,0.264c4.144,0.176 7.803,0.441 10.976,0.793l-21.159,90.719Z" style="fill-rule:nonzero;"/><path d="M1374.87,810.51c-0,5.466 -0.397,11.373 -1.191,17.72c-0.793,6.348 -1.983,12.96 -3.57,19.837l-44.698,193.339l-96.273,-0l34.383,-148.377c2.292,-10.226 4.364,-20.012 6.216,-29.357c1.851,-9.346 2.777,-16.928 2.777,-22.746c-0,-10.227 -2.821,-17.721 -8.464,-22.482c-5.642,-4.76 -15.693,-7.141 -30.151,-7.141c-6.877,0 -14.679,1.631 -23.407,4.893c-8.728,3.262 -19.264,8.155 -31.606,14.679l-48.666,210.531l-96.272,-0l34.383,-148.377c1.939,-8.639 3.879,-17.985 5.818,-28.035c1.94,-10.051 2.91,-17.721 2.91,-23.01c-0,-10.756 -2.689,-18.558 -8.067,-23.407c-5.378,-4.849 -15.384,-7.274 -30.019,-7.274c-7.582,0 -15.869,1.764 -24.862,5.29c-8.992,3.527 -19.131,8.287 -30.416,14.282l-48.665,210.531l-95.744,-0l68.766,-297.018l95.744,0l-7.67,32.797c19.396,-12.872 36.896,-22.922 52.501,-30.152c15.604,-7.229 32.487,-10.844 50.649,-10.844c19.572,0 36.058,4.364 49.458,13.092c13.401,8.728 22.746,21.556 28.036,38.483c23.627,-17.103 44.786,-29.975 63.476,-38.615c18.691,-8.64 36.764,-12.96 54.22,-12.96c26.096,0 46.021,6.436 59.774,19.308c13.753,12.872 20.63,31.209 20.63,55.013Z" style="fill-rule:nonzero;"/><path d="M1603.38,629.866l-95.215,411.54l-95.743,-0l95.214,-411.54l95.744,0Z" style="fill-rule:nonzero;"/></svg>